<?xml version="1.0" encoding="utf-8"?>
<!DOCTYPE svg PUBLIC "-//W3C//DTD SVG 1.0//EN" "http://www.w3.org/TR/2001/REC-SVG-20010904/DTD/svg10.dtd">
<svg version="1.0" xmlns="http://www.w3.org/2000/svg" width="511px" height="512px" viewBox="0 0 511 512" preserveAspectRatio="xMidYMid meet">
 <g fill="#ffffff">
  <path d="M153.5 511.1 c-4.9 -1.2 -9.5 -3.2 -9 -4.1 0.3 -0.4 -0.3 -0.6 -1.3 -0.3 -1.6 0.4 -5.2 -2.3 -4.4 -3.4 0.1 -0.1 -0.1 -0.3 -0.4 -0.2 -0.9 0.1 -6.4 -5.3 -6.4 -6.3 0 -0.5 0.5 -0.6 1.2 -0.2 0.7 0.4 0.8 0.3 0.4 -0.5 -0.4 -0.6 -1.1 -0.9 -1.5 -0.6 -1.2 0.7 -3.2 -4.5 -2.6 -6.5 0.3 -1 0.1 -2.1 -0.4 -2.5 -0.7 -0.3 -0.9 0.1 -0.6 1.2 0.3 1 -0.3 0.1 -1.3 -1.9 -1 -2.1 -1.8 -5.8 -1.8 -8.2 0.1 -2.4 -0.2 -4.2 -0.6 -4 -1.7 1.1 -2.3 -6.3 -2.3 -27.1 0 -13.2 0.5 -24 1.2 -27 0.7 -2.7 1.4 -8.1 1.8 -11.9 0.3 -3.8 0.8 -7.2 1 -7.7 0.3 -0.4 1.7 -6.5 3.1 -13.4 1.3 -7 3.1 -14.5 3.9 -16.8 0.7 -2.3 1.7 -6.2 2 -8.7 0.7 -4.9 1.3 -6.3 2.3 -5.6 0.4 0.2 0.7 -0.9 0.7 -2.4 0 -1.5 -0.3 -2.6 -0.6 -2.4 -1 0.6 -5.1 -4.4 -4.5 -5.5 0.4 -0.5 0.1 -1.3 -0.5 -1.7 -0.8 -0.5 -0.9 -0.3 -0.4 0.7 1.1 1.9 -0.6 0.2 -3.3 -3.5 -1.2 -1.5 -1.9 -3.3 -1.5 -3.9 0.3 -0.6 0.1 -0.7 -0.6 -0.3 -0.6 0.4 -1.4 0 -1.8 -1.1 -0.4 -1 -0.9 -2 -1.3 -2.3 -1.7 -1.4 -5 -8.5 -4.6 -9.7 0.3 -0.8 0.2 -1.1 -0.4 -0.8 -1.2 0.8 -3.9 -3.5 -4.2 -6.7 -0.1 -1.5 -0.5 -2.5 -0.9 -2.2 -0.8 0.4 -1.2 -0.5 -4 -8.4 -1.6 -4.8 -1.7 -5.1 -0.1 -4.3 2.1 1.2 6.2 4.5 4.5 3.6 -1.8 -0.9 -1.6 0 0.4 1.6 1.1 1 1.4 1 0.9 0.2 -0.4 -0.7 -0.3 -1.3 0.3 -1.3 1.4 0 6.2 4.6 5.6 5.3 -0.3 0.4 -0.2 0.5 0.1 0.2 1.4 -0.9 14.6 7.4 13.8 8.7 -0.3 0.5 -0.2 0.8 0.3 0.7 2.1 -0.4 3.4 0.2 2.7 1.3 -0.4 0.7 -0.3 0.8 0.4 0.4 1.5 -0.9 5.3 1.1 4.9 2.6 -0.1 0.6 0.5 1.3 1.3 1.5 1.3 0.4 1.3 0.3 0 -0.6 -1.3 -0.9 -1.3 -1.1 0.1 -1.1 0.9 0 2.1 -1 2.8 -2.2 0.9 -1.8 1 -1.8 0.6 -0.3 -0.3 1.1 -0.3 1.6 0.2 1.1 0.4 -0.4 0.8 -2.2 0.9 -3.9 0.1 -1.8 0.4 -4.1 0.7 -5.2 0.3 -1.1 0.6 -2.4 0.6 -2.8 0.1 -0.5 0.5 -0.6 1 -0.3 0.5 0.4 0.7 -0.4 0.4 -1.6 -0.4 -1.9 -0.3 -2 0.6 -0.8 0.6 0.8 1.1 1 1.1 0.4 0 -0.6 -0.7 -1.7 -1.5 -2.4 -0.8 -0.7 -1.3 -1.6 -1 -2 0.3 -0.5 0 -1.2 -0.6 -1.6 -0.8 -0.5 -0.9 -0.3 -0.4 0.6 0.5 0.8 0.3 1.1 -0.6 0.8 -0.8 -0.3 -1.3 -1.1 -1.1 -1.7 0.1 -0.7 -0.2 -1 -0.8 -0.6 -1.3 0.8 -5.2 -1.9 -4.2 -3 0.4 -0.5 0.2 -0.5 -0.5 -0.1 -1.1 0.6 -8.9 -3.5 -10.3 -5.4 -0.3 -0.3 -2.2 -1.6 -4.2 -2.9 -2.1 -1.2 -3.8 -2.5 -3.8 -2.7 0 -0.3 0.5 -0.2 1.2 0.2 0.7 0.4 0.8 0.3 0.4 -0.5 -0.4 -0.6 -1.2 -0.9 -1.7 -0.5 -1.4 0.8 -6.1 -2.5 -5.3 -3.8 0.4 -0.6 0.3 -0.8 -0.3 -0.5 -1 0.6 -6.6 -2.6 -5.8 -3.5 0.3 -0.2 -0.1 -0.5 -0.8 -0.5 -1.9 0 -6.8 -3.4 -6.2 -4.3 0.3 -0.5 0 -1.2 -0.6 -1.6 -0.8 -0.4 -0.9 -0.3 -0.5 0.4 0.4 0.7 0.2 1.2 -0.3 1.2 -0.6 0 -1.1 -0.4 -1.1 -1 0 -0.5 -0.6 -1 -1.3 -1 -0.8 0 -2.4 -1.2 -3.8 -2.7 -1.8 -2 -1.9 -2.4 -0.4 -1.3 1.8 1.4 1.9 1.4 0.7 -0.2 -0.8 -0.9 -1.9 -1.5 -2.6 -1.2 -0.7 0.3 -2.5 -0.7 -4.2 -2.2 -1.6 -1.4 -2.3 -2.3 -1.5 -1.9 0.9 0.6 1.2 0.4 0.7 -0.4 -0.4 -0.6 -1.2 -0.9 -1.7 -0.5 -1.2 0.7 -4.1 -1.5 -3.4 -2.6 0.3 -0.5 0 -1.2 -0.6 -1.6 -0.8 -0.4 -0.9 -0.3 -0.5 0.4 1.4 2.4 -1 1.1 -5.1 -2.7 -2.4 -2.1 -4 -4.1 -3.5 -4.5 0.4 -0.4 0.2 -0.6 -0.5 -0.4 -1.1 0.3 -7.2 -4.3 -12.3 -9.2 l-2.6 -2.5 2.6 2 2.5 2 -2.4 -2.7 c-1.3 -1.5 -2.8 -2.5 -3.3 -2.2 -1.2 0.8 -28.2 -26.1 -27.5 -27.4 0.4 -0.5 -0.3 -1.8 -1.6 -2.8 l-2.2 -1.9 1.9 2.3 c1.1 1.2 1.7 2.2 1.4 2.2 -1 0 -8 -9 -8.2 -10.5 -0.1 -0.8 -0.6 -1.8 -1.1 -2.2 -0.4 -0.4 -0.5 -0.1 0 0.7 0.4 0.8 -0.2 0.5 -1.4 -0.7 -1.1 -1.2 -2.1 -2.7 -2.1 -3.3 0 -0.5 -0.4 -1 -1 -1 -0.5 0 -1 -0.5 -1 -1.1 0 -0.5 0.5 -0.7 1.2 -0.3 0.7 0.4 0.8 0.3 0.4 -0.5 -0.4 -0.6 -1.1 -0.9 -1.6 -0.6 -1.3 0.8 -4.3 -4.2 -3.4 -5.6 0.5 -0.8 0.3 -0.9 -0.6 -0.4 -1 0.6 -1.2 0.4 -0.6 -1.1 0.4 -1 0.4 -1.5 0 -1.2 -1.3 1.4 -6 -6.4 -4.9 -8.2 0.3 -0.5 0 -1.2 -0.6 -1.6 -0.8 -0.4 -0.9 -0.3 -0.5 0.4 0.4 0.7 0.5 1.2 0.2 1.2 -1 0 -3.7 -7.4 -3.1 -8.7 0.2 -0.8 0.1 -1.2 -0.4 -0.8 -1.1 0.6 -4.1 -11.8 -4.1 -16.7 0 -3.4 1.9 -10.3 4.1 -15.1 1.1 -2.5 2.1 -3.2 4.2 -2.8 0.5 0.1 0.6 -0.3 0.3 -0.8 -1.4 -2.1 8.5 -9.5 11.6 -8.7 1.3 0.3 1.7 0.3 0.9 0 -2 -0.9 5.7 -4.3 10.7 -4.6 2.2 -0.2 3.8 -0.6 3.6 -0.9 -0.7 -1.1 16.9 -2.9 28.2 -2.9 6 0.1 16.5 0.8 23.4 1.6 6.9 0.8 15.4 1.9 19 2.3 7.6 0.9 17.1 3.2 16.5 4 -0.1 0.3 1.8 0.6 4.3 0.6 2.6 0 6.5 0.5 8.7 1.2 8.9 2.6 15.2 4.2 18.8 4.8 2.5 0.4 3.5 1 3 1.8 -0.3 0.6 1.4 -0.1 3.9 -1.6 2.5 -1.4 4.9 -2.3 5.3 -1.9 0.5 0.4 0.4 0.1 0 -0.7 -0.6 -1.1 -0.4 -1.3 0.9 -0.8 1 0.4 1.5 0.3 1.1 -0.3 -0.7 -1.2 3.2 -3.3 4.7 -2.4 0.7 0.4 0.8 0.3 0.4 -0.4 -0.8 -1.4 5.3 -5.4 7.2 -4.7 0.7 0.3 1.1 0.1 0.8 -0.3 -0.7 -1.1 6.3 -4.6 9.1 -4.6 1.2 0 2 -0.3 1.7 -0.7 -0.5 -0.9 5.8 -3.9 8.3 -3.9 1 0 2.3 -0.4 2.9 -0.9 1.4 -1.4 18.4 -5.3 20.5 -4.8 1 0.3 1.7 0.2 1.5 -0.2 -1 -1.5 12.4 -3.4 25.9 -3.7 7.7 -0.2 14.2 -0.4 14.5 -0.5 0.3 -0.1 0.9 -0.1 1.3 0 0.5 0.1 0.6 -0.3 0.3 -0.8 -0.3 -0.5 0.4 -2.2 1.6 -3.7 2.7 -3.7 4.4 -5.4 3.3 -3.5 -0.6 1 -0.4 1.2 0.4 0.7 0.7 -0.5 1 -1 0.7 -1.3 -0.8 -0.9 3.4 -6.4 4.4 -5.8 0.5 0.3 1.2 0 1.6 -0.6 0.4 -0.8 0.3 -0.9 -0.4 -0.5 -2.9 1.8 -0.7 -1.6 4.9 -7.5 3.4 -3.5 5.5 -5.5 4.8 -4.4 -1.3 1.8 -1.3 1.9 0.3 0.6 1 -0.7 1.5 -1.7 1.2 -2.2 -1.4 -2.3 35.3 -38.8 37.5 -37.4 0.5 0.2 1.5 -0.3 2.2 -1.3 1.3 -1.6 1.2 -1.6 -0.6 -0.2 -1.4 1 -1.3 0.7 0.5 -1.3 1.3 -1.5 3 -2.5 3.8 -2.2 0.7 0.2 1.1 0.1 0.7 -0.4 -0.7 -1.3 4.6 -5.3 6.2 -4.7 0.7 0.3 1.5 0 1.9 -0.6 0.5 -0.7 0.2 -0.8 -0.7 -0.4 -0.8 0.4 -0.3 -0.2 1.1 -1.3 1.4 -1.1 3.1 -1.9 3.8 -1.6 0.8 0.3 1 0 0.6 -0.7 -0.5 -0.8 -0.2 -0.9 0.9 -0.5 1 0.4 1.6 0.2 1.4 -0.6 -0.3 -1.7 14.9 -9.1 18.9 -9.1 1.9 0 2.9 -0.3 2.3 -0.7 -1.6 -1 7.6 -3.2 13.4 -3.2 5.7 0 10 1 9.3 2.2 -0.3 0.4 0.5 0.7 1.7 0.7 1.2 -0.1 2.1 0.4 2 1.1 -0.2 0.7 0.3 1 1.1 0.7 3 -1.2 14.7 12.1 13 14.7 -0.5 0.8 -0.3 0.9 0.6 0.4 1 -0.6 1.2 -0.4 0.7 0.9 -0.5 1.1 -0.3 1.5 0.5 1 0.8 -0.5 0.9 -0.2 0.5 1 -0.4 0.9 -0.3 1.4 0.2 1.1 0.5 -0.3 1.2 0.3 1.4 1.2 3.4 12.8 5.7 28.2 5.7 37.8 0 6.4 -3.3 37.2 -4.5 41.5 -0.2 0.8 -0.7 4 -1 7 -0.3 3 -1.5 8.7 -2.5 12.5 -1 3.9 -2.1 8.6 -2.4 10.5 -0.3 1.9 -1.5 6.9 -2.7 11 -1.1 4.1 -2.3 8.9 -2.6 10.5 -0.2 1.7 -0.9 3.5 -1.5 4 -0.8 0.7 -0.9 0.4 -0.5 -0.8 0.4 -1.1 0.3 -1.6 -0.3 -1.2 -1 0.6 -1.9 -0.9 -2.4 -3.9 -0.1 -0.8 -0.6 -1.9 -1.1 -2.3 -0.4 -0.4 -0.5 -0.1 -0.1 0.7 0.5 0.8 -0.3 0.2 -1.8 -1.5 -1.4 -1.6 -2.3 -3.6 -2.1 -4.3 0.3 -0.7 0.1 -1 -0.4 -0.7 -0.5 0.3 -3.1 -2.2 -5.6 -5.5 -4.3 -5.6 -4.6 -6.4 -3.9 -9.8 0.4 -2 0.9 -4.6 1.1 -5.7 0.2 -1.1 1.4 -6.8 2.8 -12.6 1.4 -5.8 2.4 -11.7 2.4 -13 -0.1 -1.3 0.5 -5.8 1.2 -9.9 1.8 -10.2 1.8 -42 0 -48 -0.7 -2.5 -1.5 -5.6 -1.8 -7 -0.2 -1.3 -0.9 -3 -1.4 -3.7 -0.6 -0.7 -0.8 -1.6 -0.5 -2.1 0.3 -0.5 -0.4 -1.8 -1.6 -2.8 -1.2 -1.1 -1.8 -1.3 -1.3 -0.5 0.6 1.1 0.4 1.3 -1.1 0.7 -1 -0.4 -3.2 -0.9 -4.9 -1.2 -2.8 -0.3 -2.8 -0.3 -0.5 0.5 2.5 0.9 2.5 0.9 0.2 1 -1.3 0.1 -3.7 0.8 -5.4 1.7 -1.7 0.9 -3.9 1.4 -4.9 1.1 -1.1 -0.3 -1.7 -0.1 -1.3 0.4 0.3 0.5 0 1 -0.5 1 -0.6 0.1 -1.5 0.2 -2 0.3 -0.5 0 -1.3 0.5 -1.8 1 -0.5 0.5 -0.3 0.6 0.5 0.2 0.6 -0.4 1.2 -0.5 1.2 -0.3 0 1.1 -7.3 4.7 -8.2 4.1 -0.6 -0.4 -0.8 -0.3 -0.5 0.3 0.3 0.5 -0.7 1.7 -2.4 2.7 -1.6 1 -4.1 2.9 -5.4 4.2 -1.4 1.4 -2.9 2.3 -3.4 1.9 -0.5 -0.3 -1.3 0 -1.7 0.6 -0.5 0.8 -0.3 0.9 0.7 0.4 1.9 -1.1 1.2 -0.4 -5 4.9 -3 2.5 -5.7 4.3 -6.1 4.1 -0.4 -0.3 -1.4 0.3 -2.1 1.3 -1.3 1.6 -1.2 1.6 0.6 0.3 1.1 -0.8 -1.3 2 -5.4 6.2 -4.1 4.2 -7.9 7.3 -8.4 7 -0.6 -0.3 -0.7 -0.1 -0.3 0.5 0.3 0.5 -1.4 3.2 -3.8 5.9 -2.4 2.6 -5.2 5.7 -6.2 6.8 -1.1 1.2 -1.4 1.4 -0.9 0.5 0.9 -1.3 0.8 -1.3 -0.7 -0.1 -1 0.7 -1.6 1.7 -1.3 2.1 0.7 1.1 -3.4 6 -4.7 5.7 -0.6 -0.1 -1.2 0.6 -1.3 1.7 -0.3 1.6 -1.3 2.9 -6.1 8.3 -0.7 0.6 -1.5 0.9 -1.9 0.5 -0.5 -0.4 -0.6 -0.2 -0.2 0.3 0.3 0.6 -0.4 2.2 -1.5 3.5 -1.1 1.4 -1.6 1.9 -1.2 1.1 0.5 -0.9 0.3 -1.2 -0.5 -0.7 -0.6 0.4 -0.9 1.2 -0.5 1.7 0.7 1.3 -4.4 8.1 -5.6 7.4 -0.5 -0.3 -1.2 0 -1.6 0.6 -0.4 0.8 -0.3 0.9 0.4 0.5 2 -1.2 1.3 0.7 -1.2 3.6 -1.2 1.5 -2.7 2.4 -3.1 2 -0.5 -0.4 -0.5 -0.2 -0.2 0.4 0.6 1.1 -3.9 8.2 -4.9 7.6 -0.3 -0.2 -0.9 0 -1.2 0.4 -0.4 0.4 -0.1 0.4 0.6 0 0.6 -0.4 1.2 -0.5 1.2 -0.1 0 0.8 -3.1 5.6 -4.7 7.5 -0.8 0.8 -2.1 2.4 -2.9 3.5 -0.9 1.1 -1.2 1.4 -0.8 0.6 0.5 -0.9 0.3 -1.2 -0.5 -0.7 -0.6 0.4 -0.9 1.2 -0.5 1.7 0.7 1.3 -3.5 8.1 -4.7 7.4 -0.5 -0.4 -0.6 0.1 -0.3 0.9 0.3 0.9 0.2 1.6 -0.4 1.6 -0.5 0 -1.5 1.3 -2.2 3 -0.7 1.6 -1.6 2.7 -2 2.5 -0.5 -0.3 -1.2 0 -1.6 0.6 -0.4 0.8 -0.3 0.9 0.4 0.5 1.8 -1.1 1.4 0.2 -1.1 3.9 -1.3 1.9 -2.7 3.2 -3.2 2.7 -0.5 -0.4 -0.5 -0.2 -0.1 0.5 0.8 1.4 -3.2 8.5 -4.4 7.8 -0.5 -0.3 -1.2 0 -1.6 0.6 -0.5 0.8 -0.3 0.9 0.6 0.4 0.8 -0.5 1.1 -0.3 0.8 0.6 -0.3 0.8 -1.1 1.3 -1.7 1.1 -0.7 -0.1 -1 0.2 -0.7 0.7 0.8 1.2 -1.4 6.2 -2.5 5.6 -0.4 -0.3 -1.1 0 -1.5 0.6 -0.4 0.8 -0.3 0.9 0.4 0.5 0.7 -0.4 1.2 -0.3 1.2 0.3 0 0.5 -0.4 1.3 -1 1.6 -0.5 0.3 -1.7 2.1 -2.6 4 -0.9 1.9 -2 3.2 -2.5 2.9 -0.5 -0.3 -0.6 0.3 -0.2 1.2 0.5 1.3 0.3 1.5 -0.7 0.9 -0.9 -0.5 -1.1 -0.4 -0.6 0.3 0.7 1.1 -1.9 7.2 -3 7.2 -0.3 0 -0.2 -0.5 0.2 -1.2 0.4 -0.7 0.3 -0.8 -0.5 -0.4 -0.6 0.4 -0.9 1.1 -0.6 1.6 0.6 1 -2.1 7.7 -3.6 8.6 -0.8 0.5 -0.9 0.3 -0.4 -0.6 0.5 -0.8 0.4 -1.1 -0.3 -0.6 -0.6 0.4 -0.8 1.4 -0.5 2.3 0.4 1.1 0.3 1.4 -0.5 0.9 -0.8 -0.4 -1 -0.2 -0.6 0.8 0.5 1.4 -2.1 7.6 -3.2 7.6 -0.3 0 -0.2 -0.5 0.2 -1.2 0.4 -0.7 0.3 -0.8 -0.5 -0.4 -0.6 0.4 -0.9 1.1 -0.6 1.6 0.8 1.2 -2.4 8 -3.6 7.7 -0.6 -0.1 -1.4 0.5 -1.6 1.3 -0.4 1.3 -0.3 1.3 0.7 0 1 -1.3 1.1 -1.2 0.6 0.3 -0.3 1 -0.6 2.1 -0.6 2.3 0 0.3 -0.5 0.2 -1.2 -0.2 -0.7 -0.4 -0.8 -0.3 -0.4 0.4 0.8 1.4 -3 10.6 -4.1 9.9 -0.5 -0.3 -0.9 0.8 -1 2.3 -0.2 3.4 -3.7 9.3 -4.8 8.2 -0.5 -0.4 -0.5 -0.2 -0.2 0.4 0.9 1.5 -1.2 7.6 -2.4 6.8 -0.5 -0.3 -0.6 0.3 -0.2 1.2 0.4 1.2 0.3 1.5 -0.5 1 -0.8 -0.5 -1 -0.1 -0.5 1 0.5 1.3 0.3 1.5 -0.7 0.9 -0.8 -0.5 -1.1 -0.4 -0.7 0.2 1 1.6 -1.3 7.4 -2.6 6.6 -0.6 -0.3 -0.7 -0.1 -0.3 0.6 1 1.6 -0.3 5.3 -1.6 4.5 -0.6 -0.4 -0.8 -0.2 -0.5 0.3 0.8 1.2 -1.1 7.3 -2.6 8.8 -0.7 0.7 -0.7 0.5 -0.2 -0.4 0.5 -0.9 0.4 -1.2 -0.3 -0.7 -0.6 0.4 -0.8 1.4 -0.5 2.3 0.4 1.1 0.3 1.4 -0.5 0.9 -0.7 -0.4 -1 -0.2 -0.7 0.6 0.8 2 -1.1 7.3 -2.4 7 -0.7 -0.1 -1 0.2 -0.6 0.8 0.8 1.2 -0.4 5.2 -1.3 4.6 -0.4 -0.2 -0.8 0.6 -0.8 1.7 -0.1 1.2 -0.4 3.1 -0.7 4.2 -0.3 1.1 -0.6 2.4 -0.6 2.8 -0.1 0.5 -0.5 0.5 -1.1 0.2 -0.6 -0.4 -0.7 0.1 -0.3 1.1 0.4 1.2 0.3 1.5 -0.5 1 -0.8 -0.5 -1 -0.1 -0.5 1 0.5 1.3 0.3 1.5 -0.7 0.9 -0.9 -0.5 -1.1 -0.4 -0.6 0.3 0.9 1.6 -1.3 9.4 -2.4 8.7 -0.6 -0.3 -0.7 0 -0.4 0.8 0.3 0.8 -0.2 3.2 -1.1 5.3 -0.9 2.1 -1.8 5.4 -2.1 7.4 -0.3 1.9 -1 4 -1.6 4.5 -0.8 0.7 -0.8 0.6 -0.3 -0.4 0.5 -0.9 0.4 -1.2 -0.3 -0.8 -0.5 0.4 -0.8 1.7 -0.5 3 0.3 1.4 0.2 1.8 -0.4 1 -0.5 -0.7 -0.9 0.2 -0.9 2.6 -0.1 2.1 -1.3 7.3 -2.7 11.7 -1.4 4.3 -2.8 9.8 -3.2 12.2 -0.4 2.6 -1.1 4 -1.7 3.5 -0.7 -0.3 -0.8 -0.1 -0.4 0.5 0.4 0.6 0.3 2.3 0 3.9 -0.6 2.2 -0.8 2.4 -1.3 1 -0.4 -1 -0.7 0.6 -0.8 3.5 -0.1 4.5 -3.3 22.9 -4.8 27 -0.2 0.7 -0.6 4.1 -0.9 7.5 -0.2 3.4 -1 12 -1.7 19.2 -1.2 12.7 -1 16.9 1.8 36.1 0.3 1.9 0.6 4.3 0.6 5.2 0.1 0.9 0.6 1.4 1.1 1.1 0.5 -0.4 0.7 0.1 0.3 1 -0.3 0.9 -0.1 1.9 0.5 2.3 0.7 0.5 0.8 0.2 0.3 -0.7 -0.6 -1.1 -0.5 -1.1 0.4 -0.3 0.7 0.6 1.4 2 1.6 3 0.2 1.1 0.4 2 0.4 2.1 0.1 0 2.6 -0.5 5.7 -1.4 3.1 -0.8 6.3 -1.2 7.1 -0.9 0.8 0.3 1.1 0.2 0.8 -0.3 -0.7 -1.2 3.1 -2.5 4.5 -1.6 0.6 0.4 0.9 0.1 0.8 -0.7 -0.2 -0.7 0.5 -1.3 1.4 -1.3 0.9 0 2 -0.4 2.5 -0.9 0.4 -0.5 0.3 -0.6 -0.4 -0.2 -0.7 0.4 -1.3 0.4 -1.3 0.1 0 -0.8 6.2 -3 7.5 -2.6 0.6 0.1 0.7 0 0.3 -0.4 -0.9 -0.9 0.1 -1.8 7.5 -7.3 3.1 -2.4 6.1 -4.1 6.6 -3.8 0.5 0.3 1.7 -0.4 2.7 -1.7 1.9 -2.2 1.9 -2.2 -0.1 -0.7 -1.4 1 -1.3 0.7 0.3 -0.8 1.3 -1.2 2.8 -1.9 3.4 -1.6 0.6 0.4 0.8 0.2 0.5 -0.3 -0.7 -1.1 2.1 -4.1 3.8 -4.2 0.6 -0.1 1 -0.4 1 -0.8 0 -1.7 1.7 -3.3 2.8 -2.7 0.7 0.4 0.9 0.4 0.5 0 -0.9 -1.1 5.2 -7.7 6.5 -6.9 0.6 0.3 0.7 0.1 0.4 -0.4 -0.6 -1 2.9 -4.9 4.2 -4.6 0.3 0 0.5 -0.3 0.4 -0.7 -0.3 -0.9 2.8 -3.8 4.2 -4 0.6 -0.1 0.9 -0.7 0.7 -1.4 -0.1 -0.7 1 -2.3 2.5 -3.7 2 -1.8 2.4 -1.9 1.3 -0.4 -1.4 1.8 -1.4 1.9 0.2 0.6 1 -0.7 1.6 -1.7 1.3 -2.1 -0.2 -0.4 0.1 -1.5 0.8 -2.4 1.1 -1.4 3.3 -1.6 17.9 -1.4 l16.7 0.3 -4.3 4.7 c-2.4 2.6 -4.7 4.4 -5.1 4 -0.5 -0.4 -0.5 -0.2 -0.2 0.4 0.6 1 -8.7 13.4 -10 13.4 -0.4 0 0.4 -1.2 1.8 -2.7 l2.4 -2.8 -2.7 2.4 c-1.5 1.3 -2.5 2.8 -2.2 3.2 0.6 1.1 -6.5 8.9 -7.9 8.6 -0.6 -0.1 -1.2 0.3 -1.2 0.8 -0.4 2.4 -1.8 4.5 -3.1 4.5 -0.8 0 -1.4 0.7 -1.4 1.5 0 1.3 -4 4.2 -4.8 3.6 -0.2 -0.2 -0.7 0.1 -1 0.5 -0.4 0.4 -0.1 0.4 0.6 0 2.1 -1.2 1.3 0.4 -1.5 3 -1.6 1.4 -4.7 4.4 -7.1 6.6 -2.4 2.2 -5.1 4.1 -6 4.2 -0.9 0.2 -1.7 0.8 -1.7 1.5 0 1.4 -2.6 3.2 -3.7 2.5 -0.5 -0.3 -0.7 0 -0.6 0.8 0.2 0.7 -0.5 1.3 -1.4 1.3 -1 0 -2.3 0.7 -3 1.5 -1.1 1.2 -1 1.2 0.7 0 2 -1.5 2 -1.4 0.1 0.8 -1.1 1.2 -2.5 2.2 -3.1 2.2 -0.7 0 -1.5 0.7 -1.9 1.5 -0.3 0.8 -1 1.5 -1.6 1.5 -0.6 0 -0.8 -0.5 -0.4 -1.2 0.4 -0.7 0.3 -0.8 -0.5 -0.4 -0.6 0.4 -0.9 1.1 -0.7 1.5 0.7 1 -5.2 4.4 -6.3 3.6 -0.5 -0.3 -1.3 0 -1.7 0.6 -0.4 0.8 -0.3 0.9 0.4 0.5 0.7 -0.4 1.2 -0.5 1.2 -0.2 0 1.1 -6.1 3.7 -7.2 3 -0.7 -0.5 -0.8 -0.3 -0.3 0.6 0.6 1 0.4 1.2 -0.9 0.7 -1.1 -0.5 -1.5 -0.3 -1 0.5 0.5 0.8 0.2 0.9 -1 0.5 -0.9 -0.4 -1.5 -0.3 -1.1 0.2 0.8 1.3 -6.1 3.4 -8.7 2.6 -1.9 -0.5 -2 -0.4 -0.8 0.5 1.2 1 1.1 1.1 -0.8 0.7 -1.2 -0.3 -2 -0.1 -1.7 0.3 1 1.7 -10.1 3.2 -15 2.1z m-28.8 -45.3 c-0.2 -1.3 -0.4 -0.3 -0.4 2.2 0 2.5 0.2 3.5 0.4 2.3 0.2 -1.3 0.2 -3.3 0 -4.5z m-0.5 -23.8 c0.2 -11.3 0.1 -17.8 -0.3 -14.5 -0.7 6.2 -1.2 36.1 -0.5 35.4 0.2 -0.2 0.5 -9.6 0.8 -20.9z m22.5 16.3 c-0.3 -1 -0.5 -0.2 -0.5 1.7 0 1.9 0.2 2.7 0.5 1.8 0.2 -1 0.2 -2.6 0 -3.5z m-1 -13.5 c-0.2 -2.4 -0.4 -0.7 -0.4 3.7 0 4.4 0.2 6.3 0.4 4.3 0.2 -2.1 0.2 -5.7 0 -8z m1 -11 c-0.2 -1.3 -0.4 -0.3 -0.4 2.2 0 2.5 0.2 3.5 0.4 2.3 0.2 -1.3 0.2 -3.3 0 -4.5z m111.6 -7.5 c-4 -0.2 -10.6 -0.2 -14.5 0 -4 0.1 -0.8 0.3 7.2 0.3 8 0 11.2 -0.2 7.3 -0.3z m-106.5 -28.3 c0 -2.2 -0.1 -2.2 -0.8 0.5 -0.4 1.7 -0.8 4.1 -0.8 5.5 0 2.2 0.1 2.2 0.8 -0.5 0.4 -1.6 0.8 -4.1 0.8 -5.5z m11.6 -118.7 c0.3 -0.8 0.2 -2.2 -0.3 -3.2 -1.9 -3.5 -3.3 -19.8 -2.8 -32.1 0.3 -9.3 1 -14.2 2.7 -19 2.1 -6.1 2.7 -8.4 2.9 -10.3 0.1 -0.5 0.5 -0.5 1.1 -0.2 0.6 0.4 0.7 -0.1 0.3 -1.1 -0.4 -1.1 -0.3 -1.5 0.5 -1 0.6 0.3 1.4 0.1 1.8 -0.5 0.4 -0.8 0.3 -0.9 -0.4 -0.5 -1.4 0.8 -1.5 0.4 -0.6 -1.8 0.3 -0.9 1.1 -1.3 1.7 -0.9 0.6 0.3 0.7 0.1 0.3 -0.5 -0.7 -1.1 1.9 -7.2 3 -7.2 0.3 0 0.2 0.5 -0.1 1 -1 1.6 0.1 1.1 1.6 -0.7 1 -1.1 1 -1.4 0.2 -0.9 -2 1.1 -1.5 -0.8 0.8 -3.8 1.1 -1.4 2.5 -2.4 3 -2.1 0.5 0.4 0.6 0 0.3 -0.8 -0.3 -0.8 0.2 -2 1.1 -2.7 0.8 -0.7 1.5 -0.9 1.5 -0.5 0 0.4 0.7 0.2 1.5 -0.5 0.8 -0.7 1.2 -1.6 0.9 -2.2 -0.8 -1.3 1.6 -3.9 3 -3.1 0.6 0.3 0.8 0.3 0.4 -0.2 -0.8 -0.9 1.6 -3.6 3.5 -3.9 2 -0.3 3.8 -1.7 3.2 -2.6 -0.7 -1.2 2.2 -3.3 3.6 -2.4 0.8 0.4 0.9 0.3 0.5 -0.4 -0.8 -1.4 5.3 -5.4 7.2 -4.7 0.8 0.3 1 0 0.6 -0.7 -0.5 -0.8 -0.2 -0.9 0.9 -0.5 0.9 0.3 1.9 0.1 2.3 -0.5 0.4 -0.7 0.3 -0.8 -0.4 -0.4 -0.7 0.4 -1.2 0.5 -1.2 0.2 0 -1.1 10.5 -5.6 11.9 -5.1 0.8 0.3 1.2 0.3 0.9 0 -0.8 -0.9 3.4 -5.4 4.4 -4.8 0.4 0.2 0.5 -0.3 0.2 -1.1 -0.6 -1.7 2.4 -6.8 3.6 -6.1 0.5 0.3 1.2 0 1.6 -0.6 0.4 -0.8 0.3 -0.9 -0.4 -0.5 -1.8 1.1 -1.5 -0.3 0.9 -4 1.9 -3.1 3.9 -5 2.3 -2.1 -0.4 0.6 -0.3 0.9 0.1 0.4 0.5 -0.4 1 -1.7 1.2 -2.8 0.4 -2.7 3.3 -7 4.3 -6.4 1.4 0.8 1.8 -0.8 0.9 -3.2 -1 -2.6 -2 -2.5 -16.3 1.4 -4.9 1.3 -9.5 2.2 -10.3 1.9 -0.8 -0.3 -1.1 -0.2 -0.8 0.3 0.6 1.1 -3.1 2.5 -4.4 1.6 -0.5 -0.3 -1.3 0 -1.7 0.6 -0.5 0.8 -0.3 0.9 0.6 0.4 0.9 -0.5 1.1 -0.4 0.6 0.3 -0.4 0.7 -1.5 1.2 -2.4 1.2 -1 0 -2.8 0.7 -4 1.6 -1.3 0.9 -3 1.3 -4 0.9 -0.9 -0.3 -1.3 -0.3 -0.9 0.1 0.4 0.4 -0.5 1.6 -2 2.6 -3.1 2 -4.8 2.3 -3.8 0.8 1.1 -1.8 -0.1 -1.1 -2.1 1.2 -1.9 2.2 -1.9 2.2 0 0.8 1.2 -0.9 1.7 -1 1.2 -0.2 -0.9 1.5 -6.1 4.3 -7 3.7 -0.3 -0.3 -0.4 -0.2 -0.1 0.1 0.2 0.4 -0.7 1.6 -2.1 2.7 -1.4 1.1 -6 5.2 -10.1 9.1 -4.2 3.9 -7.9 7.1 -8.3 7.1 -0.5 0 -1.2 0.4 -1.7 0.9 -0.5 0.5 -0.3 0.6 0.5 0.2 0.6 -0.4 1.2 -0.3 1.2 0.2 0 1 -3.8 4.7 -4.8 4.7 -0.4 0 -0.7 0.5 -0.8 1.1 -0.2 1.3 -3.4 6.4 -4.1 6.4 -0.2 0 -0.1 -0.6 0.3 -1.2 0.5 -0.9 0.2 -0.9 -0.9 0.1 -1.8 1.5 -2.3 2.6 -0.7 1.6 1.4 -0.8 1.3 -0.3 -0.6 3.4 -0.8 1.7 -2 2.9 -2.5 2.5 -0.5 -0.3 -0.9 -0.2 -0.8 0.3 0.3 1.8 -0.1 3.4 -0.8 3 -0.5 -0.3 -0.9 0.5 -0.9 1.6 -0.1 1.2 -1.3 4.7 -2.7 7.7 -1.4 3 -3.3 8.2 -4.3 11.4 -1.2 4.1 -2 5.4 -2.4 4.1 -0.3 -1 -0.6 0.4 -0.7 3.1 0 2.7 -0.4 6.3 -0.7 7.9 -0.4 1.7 -1 9.4 -1.3 17.3 -0.6 13.6 -0.5 14.4 1.6 16.6 1.2 1.2 1.8 2.6 1.4 3.1 -0.5 0.4 -0.2 0.5 0.4 0.1 1.5 -0.8 5.6 1.7 4.6 2.8 -0.4 0.4 0.1 0.4 1.1 0 1.5 -0.6 1.7 -0.4 1.1 0.6 -0.5 0.8 -0.4 1.1 0.2 0.7 1.3 -0.8 7.9 3.6 7.6 5 -0.1 0.5 0.8 0.9 2 0.9 1.3 -0.1 2.1 0.4 2 1.2 -0.2 0.6 0 1.1 0.5 1.1 1.7 -0.3 3.3 0.2 2.9 0.9 -0.3 0.4 0.5 0.8 1.8 0.8 1.3 0.1 2.6 -0.5 2.9 -1.3z m-31.7 -35 c-0.2 -3.2 -0.3 -0.6 -0.3 5.7 0 6.3 0.1 8.9 0.3 5.8 0.2 -3.2 0.2 -8.4 0 -11.5z m-30 -19.3 c1 -5.8 2.3 -10.4 2.9 -10.3 0.6 0.1 0.9 -1.1 0.6 -2.7 -0.5 -3.8 0.6 -8.3 1.8 -7.5 0.6 0.4 0.7 -0.1 0.3 -1.1 -0.5 -1.3 -0.3 -1.5 0.7 -0.9 0.9 0.5 1.1 0.4 0.6 -0.4 -1.1 -1.8 3.5 -14.5 4.7 -12.9 0.6 0.9 0.7 0.8 0.4 -0.4 -0.7 -2 2.6 -9.2 3.7 -8.1 0.4 0.4 0.7 0.3 0.6 -0.2 -0.5 -2.1 0 -3.6 1 -3 0.6 0.3 0.7 -0.1 0.4 -1 -0.7 -1.8 2.3 -6.8 3.6 -6 0.6 0.4 0.7 -0.1 0.3 -1.1 -0.5 -1.3 -0.3 -1.5 0.7 -0.9 0.7 0.5 1.1 0.4 0.8 -0.1 -0.8 -1.3 1 -5.6 2.1 -5 0.5 0.3 1.5 -0.2 2.2 -1.1 1 -1.2 1 -1.4 0.2 -0.9 -1.9 1.1 -1.6 -0.2 0.8 -3.5 1.1 -1.6 2.4 -2.7 2.9 -2.4 0.5 0.3 1.2 0 1.6 -0.6 0.4 -0.8 0.3 -0.9 -0.4 -0.5 -1.7 1.1 -1.5 -0.9 0.3 -2.4 3.9 -3.3 1.4 -4.6 -14.5 -7.5 -12 -2.2 -13.1 -2.5 -12.6 -3.3 0.2 -0.4 -3.5 -0.8 -8.3 -1 -4.7 -0.1 -11.1 -0.8 -14.1 -1.4 -7.5 -1.5 -36.5 -1.6 -41 0 -1.9 0.6 -5.2 1.4 -7.2 1.6 -3.6 0.5 -8.5 2.9 -10.1 5.1 -0.7 1 -0.5 12.7 0.2 11.9 0.4 -0.4 5.1 8.3 5.1 9.4 0 0.2 -0.6 0 -1.2 -0.4 -0.7 -0.4 -1 -0.4 -0.6 0 0.3 0.4 0.9 0.6 1.2 0.4 1 -0.5 4.7 6.3 4 7.4 -0.4 0.6 -0.3 0.8 0.4 0.4 1.3 -0.8 5.4 4.3 4.8 6 -0.3 0.7 0.3 1.8 1.2 2.6 1.5 1.1 1.6 1.1 0.7 -0.2 -0.5 -0.9 -0.2 -0.7 0.7 0.3 1 1.1 1.6 2.3 1.3 2.7 -0.3 0.5 0 1.2 0.6 1.6 0.8 0.5 1 0.2 0.5 -0.7 -0.4 -0.8 -0.1 -0.5 0.8 0.5 0.8 1 1.3 2.3 0.9 2.9 -0.3 0.6 -0.1 0.7 0.5 0.3 1 -0.6 7.7 6.7 7.7 8.5 0 0.5 0.3 0.8 0.6 0.7 0.9 -0.4 4.9 3.2 4.6 4.1 -0.1 0.3 0.1 0.6 0.4 0.6 1 0 4.8 3.7 4.6 4.4 -0.1 0.3 0.3 0.7 0.8 0.9 1.7 0.6 4.4 3.4 4.2 4.4 -0.1 0.6 0.6 1.2 1.7 1.3 2.3 0.4 5.7 4 4.8 5.1 -0.4 0.4 -0.2 0.5 0.3 0.1 0.6 -0.3 3.3 1.5 6 4 2.8 2.6 4.1 4 3 3.2 -1.8 -1.3 -1.9 -1.3 -0.7 0.3 0.8 0.9 1.9 1.5 2.6 1.2 0.7 -0.3 1.9 0.3 2.7 1.3 1.3 1.7 1.3 1.7 -0.6 0.3 -1.9 -1.4 -1.9 -1.4 -0.6 0.2 0.7 1 1.7 1.6 2.1 1.3 0.5 -0.3 2.1 0.6 3.7 1.9 1.5 1.4 3.1 2.2 3.5 1.8 0.4 -0.4 1.5 -5.4 2.5 -11.2z m63.2 -1 c0 -0.9 -0.4 -0.8 -0.9 0.5 -0.5 1.1 -0.9 2.7 -0.9 3.5 0 0.9 0.4 0.8 0.9 -0.5 0.5 -1.1 0.9 -2.7 0.9 -3.5z m-95 -88.6 c0.8 -0.7 -13.2 -0.2 -18.9 0.6 -3.6 0.5 -1.3 0.6 6.5 0.3 6.6 -0.3 12.2 -0.7 12.4 -0.9z m9.9 0.9 c-1.5 -0.2 -4.2 -0.2 -6 0 -1.8 0.2 -0.6 0.4 2.7 0.4 3.3 0 4.8 -0.2 3.3 -0.4z m-33 -22 c-1 -0.2 -2.8 -0.2 -4 0 -1.3 0.2 -0.5 0.4 1.7 0.4 2.2 0.1 3.2 -0.1 2.3 -0.4z m39.5 0 c-1.3 -0.2 -3.5 -0.2 -5 0 -1.6 0.2 -0.5 0.4 2.2 0.4 2.8 0 4 -0.2 2.8 -0.4z m-16.1 -1 c-4 -0.2 -10.3 -0.2 -14 0 -3.7 0.2 -0.4 0.3 7.3 0.3 7.7 0 10.7 -0.2 6.7 -0.3z m171.6 -15 c-1.6 -0.2 -4 -0.2 -5.5 0 -1.6 0.2 -0.3 0.4 2.7 0.4 3 0 4.3 -0.2 2.8 -0.4z m174.9 -4.5 c-0.2 -1.3 -0.4 -0.5 -0.4 1.7 -0.1 2.2 0.1 3.2 0.4 2.3 0.2 -1 0.2 -2.8 0 -4z m-22 -5.5 c-0.3 -1 -0.5 -0.2 -0.5 1.7 0 1.9 0.2 2.7 0.5 1.8 0.2 -1 0.2 -2.6 0 -3.5z m23 -3.5 c-0.2 -1.3 -0.4 -0.3 -0.4 2.2 0 2.5 0.2 3.5 0.4 2.3 0.2 -1.3 0.2 -3.3 0 -4.5z m-22 -5 c-0.2 -1.3 -0.4 -0.3 -0.4 2.2 0 2.5 0.2 3.5 0.4 2.3 0.2 -1.3 0.2 -3.3 0 -4.5z m-100.1 -18 l2.9 -3.3 -3.2 2.9 c-3.1 2.8 -3.8 3.6 -3 3.6 0.2 0 1.6 -1.5 3.3 -3.2z m15.4 -16.3 c4.7 -4.7 8.2 -8.5 8 -8.5 -0.3 0 -4.3 3.8 -9 8.5 -4.7 4.7 -8.2 8.5 -8 8.5 0.3 0 4.3 -3.8 9 -8.5z m84 -2.5 l-1.1 -2.5 0.6 2.5 c0.2 1.4 0.5 3.6 0.6 5 l0.2 2.5 0.4 -2.5 c0.2 -1.4 -0.1 -3.7 -0.7 -5z m22.7 -1.7 c-0.3 -1 -0.5 -0.2 -0.5 1.7 0 1.9 0.2 2.7 0.5 1.8 0.2 -1 0.2 -2.6 0 -3.5z"/>
  <path d="M435 410.4 c-2.5 -0.3 -9.7 -1.2 -16 -2 -6.3 -0.9 -14.2 -1.9 -17.5 -2.4 -3.3 -0.4 -10.3 -1.7 -15.5 -2.9 -5.2 -1.2 -12.5 -2.9 -16.2 -3.8 -3.8 -0.8 -6.6 -1.8 -6.4 -2.2 0.2 -0.3 -1.3 -0.7 -3.4 -0.7 -5.1 -0.2 -11.2 -2.3 -10.4 -3.6 0.4 -0.7 0.2 -0.8 -0.4 -0.4 -0.6 0.3 -4.5 -0.3 -8.6 -1.4 -4.2 -1.1 -7.9 -2 -8.3 -2 -0.5 0 -0.1 -0.5 0.7 -1 1.1 -0.8 0.8 -0.9 -1.3 -0.4 -1.5 0.3 -3.3 0.2 -4 -0.4 -0.6 -0.5 -2.9 -1.2 -4.9 -1.6 -2.1 -0.4 -4 -1.2 -4.4 -1.8 -0.5 -0.7 -0.2 -0.8 0.6 -0.3 0.8 0.5 1.1 0.4 0.7 -0.3 -0.4 -0.5 -1.7 -0.8 -3 -0.5 -1.8 0.4 -1.9 0.3 -0.7 -0.7 1.2 -0.9 1.1 -1 -0.7 -0.5 -1.3 0.3 -5.2 -0.5 -9.5 -2 -4 -1.5 -8.8 -3.1 -10.6 -3.6 -1.8 -0.6 -3 -1.4 -2.7 -1.9 0.3 -0.5 0 -1.2 -0.6 -1.6 -0.8 -0.5 -0.9 -0.3 -0.4 0.6 0.6 1 0.4 1.2 -0.9 0.7 -1 -0.4 -2 -0.7 -2.2 -0.7 -0.3 0 -0.2 -0.5 0.2 -1.2 0.4 -0.7 0.3 -0.8 -0.5 -0.4 -1.6 1 -8.3 -1.3 -7.5 -2.6 0.4 -0.7 0.2 -0.8 -0.5 -0.4 -1.6 1 -5.3 -0.3 -4.5 -1.6 0.4 -0.6 0.2 -0.8 -0.3 -0.5 -1.2 0.8 -10 -2.1 -10.9 -3.5 -0.4 -0.6 0.4 -0.5 1.7 0.2 2.2 1 2.3 1 0.6 -0.4 -1.1 -0.8 -2.5 -1.2 -3.2 -1 -1.9 0.8 -11.6 -3.6 -10.8 -4.9 0.3 -0.5 0.2 -0.7 -0.4 -0.4 -1.5 0.9 -6.8 -0.9 -6.5 -2.2 0.1 -0.7 -0.2 -1 -0.7 -0.7 -1.4 0.9 -4.2 -0.5 -3.4 -1.7 0.4 -0.6 0.1 -0.7 -0.6 -0.3 -1.6 1 -7.3 -1.3 -6.4 -2.7 0.3 -0.5 0.1 -0.7 -0.5 -0.4 -1.5 1 -4.3 -0.3 -3.5 -1.7 0.3 -0.6 0.3 -0.8 -0.1 -0.4 -1.2 1 -6.7 -1.3 -5.9 -2.5 0.3 -0.5 0.1 -0.7 -0.5 -0.4 -1.5 1 -4.3 -0.3 -3.5 -1.7 0.3 -0.6 0.3 -0.8 -0.1 -0.4 -1.1 0.9 -6.7 -1.2 -6 -2.3 0.3 -0.5 -0.3 -0.6 -1.2 -0.2 -1.2 0.4 -1.5 0.3 -1 -0.5 0.5 -0.8 0.1 -1 -1 -0.5 -1.3 0.5 -1.5 0.3 -0.9 -0.7 0.5 -0.9 0.4 -1.1 -0.3 -0.6 -0.6 0.4 -3.2 -0.4 -5.7 -1.8 -2.5 -1.3 -4.2 -2.6 -3.8 -2.8 0.4 -0.3 0.2 -0.3 -0.5 -0.1 -0.7 0.1 -2.2 -0.2 -3.3 -0.7 -1.5 -0.8 -1.8 -1.9 -1.5 -4.5 0.5 -4.2 1.4 -5.7 2.8 -4.9 0.7 0.4 0.8 0.2 0.4 -0.5 -1.1 -1.8 0.2 -6.3 1.6 -5.5 0.7 0.4 0.8 0.3 0.4 -0.5 -0.8 -1.2 1 -7.9 2.6 -9.6 0.6 -0.6 0.7 -0.3 0.3 1 -0.5 1.5 -0.4 1.6 0.3 0.6 0.5 -0.7 0.7 -2.2 0.4 -3.4 -0.3 -1.1 -0.1 -1.8 0.4 -1.4 0.5 0.3 0.9 -0.7 0.8 -2.1 -0.1 -3 1.6 -6.3 2.8 -5.6 0.4 0.3 0.5 -0.2 0.2 -1.1 -0.4 -0.8 0 -2.5 0.9 -3.8 0.8 -1.2 1.8 -3.7 2.1 -5.5 0.4 -1.7 1.2 -3.4 1.7 -3.7 0.5 -0.4 0.6 0.2 0.3 1.2 -0.5 1.4 -0.4 1.5 0.4 0.4 0.6 -0.8 0.8 -2.1 0.4 -2.9 -0.3 -1 -0.1 -1.3 0.6 -0.8 0.8 0.4 1 0.2 0.6 -0.8 -0.7 -2 3.6 -11.7 4.9 -10.9 0.6 0.4 0.7 0.1 0.3 -0.6 -1 -1.5 1.3 -7.3 2.5 -6.5 0.5 0.3 0.6 -0.3 0.2 -1.2 -0.5 -1.3 -0.3 -1.5 0.7 -0.9 0.8 0.5 1.1 0.4 0.7 -0.2 -0.8 -1.3 2.3 -9.4 3.4 -8.7 0.5 0.3 0.6 -0.3 0.2 -1.2 -0.5 -1.3 -0.3 -1.5 0.7 -0.9 0.9 0.5 1.1 0.4 0.6 -0.4 -0.4 -0.6 0.2 -3.2 1.4 -5.6 2.2 -4.5 3.5 -6.1 2.3 -2.7 -0.7 1.8 -0.5 1.7 1.7 -1.2 1 -1.3 1 -1.7 0.3 -1.2 -1.7 1 -1.6 0.4 0.4 -3.8 0.9 -1.9 2 -3.3 2.5 -3 0.4 0.3 0.5 -0.3 0.1 -1.2 -0.4 -1.2 -0.3 -1.5 0.5 -1 0.8 0.4 1 0.2 0.6 -0.7 -0.7 -1.8 3 -8 4.1 -6.9 0.5 0.4 0.5 0.2 0.2 -0.5 -0.8 -1.4 3.7 -9.6 4.7 -8.6 0.4 0.4 0.4 -0.1 0 -1.1 -0.6 -1.5 -0.4 -1.7 0.6 -1.1 0.9 0.5 1.1 0.4 0.6 -0.3 -0.6 -1.1 2.9 -9.2 4 -9.2 0.3 0 0.2 0.5 -0.2 1.2 -0.4 0.7 -0.3 0.8 0.4 0.4 0.6 -0.4 0.8 -1.4 0.5 -2.3 -0.4 -1.1 -0.3 -1.4 0.5 -0.9 0.8 0.4 1 0.2 0.6 -0.8 -0.7 -1.7 2.4 -6.8 3.7 -6 0.5 0.3 0.6 -0.3 0.2 -1.2 -0.5 -1.3 -0.3 -1.5 0.7 -0.9 0.9 0.5 1.1 0.4 0.6 -0.4 -1 -1.5 3.3 -8.3 4.6 -7.5 0.7 0.4 0.8 0.2 0.4 -0.4 -0.9 -1.5 1.8 -5.5 2.9 -4.4 0.5 0.4 0.5 0.2 0.1 -0.5 -0.7 -1.2 2.9 -8.8 4.7 -10 0.6 -0.4 0.7 -0.1 0.2 0.7 -0.5 0.9 -0.4 1.1 0.4 0.6 0.6 -0.4 0.9 -1.1 0.6 -1.5 -0.2 -0.5 0.1 -1.6 0.8 -2.5 1.1 -1.5 1.8 -1.6 6 -0.6 2.6 0.7 4.4 1.6 4.1 2.1 -0.3 0.5 0.1 0.6 0.9 0.3 1.7 -0.6 11 4 10 5 -0.4 0.4 0.1 0.4 1.1 0 1.5 -0.6 1.7 -0.4 1.1 0.6 -0.5 0.9 -0.4 1.1 0.4 0.6 1.1 -0.7 9.1 3.7 9.1 5 0 0.4 -0.8 0 -1.7 -0.7 -1.6 -1.3 -1.7 -1.2 -0.4 0.3 0.7 1 1.6 1.6 2 1.4 1 -0.7 3.6 1.2 3.6 2.5 0 0.7 0.8 1.3 1.9 1.5 2.6 0.4 9.7 7.4 9.3 9.4 -0.1 0.8 0.3 1.4 1 1.3 0.7 -0.2 2.8 1.8 4.8 4.4 3.6 4.7 4.5 7 2.3 5.7 -0.7 -0.4 -0.4 0.2 0.6 1.4 2.2 2.6 3.5 3 1.5 0.5 -0.9 -1.1 -0.9 -1.4 -0.2 -1 3 1.8 11.1 22.6 9.7 24.8 -0.4 0.8 -0.3 0.9 0.4 0.5 2 -1.2 2.7 4.5 2.7 23.4 0 18.1 -0.7 24.6 -2.4 23.5 -0.5 -0.3 -0.7 0.5 -0.4 1.7 0.3 1.5 0.2 1.9 -0.4 1.1 -0.6 -0.9 -0.9 -0.2 -0.9 2 0 4.7 -3.5 13.2 -4.7 11.5 -0.6 -1 -0.7 -0.9 -0.3 0.4 0.5 1.6 -1.9 7.8 -3 7.8 -0.3 0 -0.2 -0.5 0.2 -1.2 0.4 -0.7 0.3 -0.8 -0.5 -0.4 -0.6 0.4 -0.9 1.1 -0.6 1.6 0.5 0.9 -4.2 9 -5.2 9 -0.2 0 -0.1 -0.5 0.3 -1.2 0.4 -0.7 0.3 -0.8 -0.4 -0.4 -0.6 0.4 -0.9 1.2 -0.6 1.9 0.5 1.3 -3.2 5.4 -4.5 5 -0.3 -0.2 -0.6 0 -0.7 0.5 -0.2 2.2 -1.8 4.3 -3 3.8 -0.7 -0.3 -1.8 0.2 -2.4 1 -0.7 0.8 -0.9 1.4 -0.4 1.4 0.4 0 -0.3 1.1 -1.6 2.5 -2.4 2.5 -4.7 3.5 -3.4 1.3 0.4 -0.7 0.3 -0.8 -0.5 -0.4 -0.6 0.4 -0.9 1.1 -0.7 1.5 0.8 1.2 -5.3 5.3 -6.6 4.5 -0.6 -0.4 -0.8 -0.3 -0.5 0.3 0.7 1.1 -4 3.6 -5.3 2.8 -0.5 -0.3 -1.2 0 -1.6 0.6 -0.5 0.8 -0.3 0.9 0.6 0.4 0.8 -0.5 1.1 -0.4 0.7 0.2 -0.4 0.6 -2.1 1.6 -3.9 2.3 -1.8 0.6 -4.2 1.6 -5.3 2.1 -1.1 0.5 -3.2 1.3 -4.7 1.9 -3.1 1 -3.6 2.7 -1.3 3.6 0.8 0.4 1.3 1 1 1.4 -0.3 0.5 0.3 0.6 1.4 0.3 1 -0.3 2.2 0 2.5 0.6 0.5 0.7 0 0.9 -1.1 0.5 -1.4 -0.5 -1.5 -0.4 -0.4 0.4 0.8 0.6 2 0.8 2.6 0.6 1.7 -0.7 12.6 3.6 12 4.7 -0.4 0.5 0 0.6 0.8 0.3 0.8 -0.3 3.4 0.2 5.8 1.1 5 1.9 10.1 2.7 9.4 1.5 -0.3 -0.5 0.5 -1.6 1.7 -2.4 2.5 -1.8 4.2 -2.1 3.3 -0.6 -1 1.6 0.1 1.1 1.6 -0.7 1 -1.1 1 -1.4 0.2 -0.9 -0.7 0.4 -1.3 0.5 -1.3 0.3 0 -0.7 5.1 -3.9 6.6 -4.1 0.8 -0.1 2 -0.8 2.7 -1.6 1 -1.2 0.9 -1.2 -0.3 -0.5 -0.9 0.6 -0.5 0 0.9 -1.2 1.4 -1.2 3 -2.1 3.5 -2 0.6 0.1 1 -0.3 0.9 -0.9 -0.2 -1.1 3.5 -5.1 4.3 -4.6 0.2 0.1 0.3 0 0.2 -0.2 -0.6 -0.9 3.5 -4.5 4.5 -3.9 0.5 0.3 0.7 0.1 0.4 -0.4 -0.4 -0.6 0.3 -2.4 1.5 -3.9 2.8 -3.8 4.3 -5.4 3.3 -3.4 -0.5 0.8 -0.4 1.1 0 0.7 0.5 -0.4 1 -1.4 1.1 -2.2 0.4 -2.5 4.5 -7.5 5.6 -6.9 0.6 0.4 0.8 0.2 0.5 -0.4 -0.9 -1.4 0.3 -4.3 1.4 -3.6 0.5 0.3 0.6 -0.3 0.2 -1.2 -0.5 -1.3 -0.3 -1.5 0.7 -0.9 0.8 0.5 1.1 0.4 0.7 -0.2 -0.9 -1.4 2.7 -8.6 3.8 -7.6 0.4 0.4 0.5 0.3 0.2 -0.4 -0.9 -1.5 0.2 -4.5 1.4 -3.7 0.5 0.3 0.6 -0.3 0.2 -1.2 -0.4 -1.2 -0.3 -1.5 0.5 -1 0.8 0.4 1 0.2 0.6 -0.8 -0.6 -1.6 3.6 -15.7 4.5 -15.2 1.4 0.9 2.1 -37.5 0.9 -48 -0.4 -3.4 -2.1 -10.4 -3.8 -15.5 -1.7 -5.2 -2.8 -10 -2.5 -10.7 0.3 -0.8 0 -1 -0.7 -0.6 -0.8 0.5 -0.9 0.2 -0.5 -0.9 0.3 -0.9 0.1 -1.9 -0.5 -2.3 -0.7 -0.5 -0.8 -0.2 -0.4 0.7 0.4 0.8 0 0.5 -0.8 -0.5 -1.4 -1.8 -2.1 -4.6 -1.7 -6.9 0.1 -0.5 -0.4 -0.5 -1 -0.1 -0.9 0.5 -1 0.2 -0.6 -0.9 0.3 -0.9 0.1 -1.9 -0.5 -2.3 -0.7 -0.4 -0.8 -0.3 -0.4 0.4 0.4 0.7 0.5 1.2 0.2 1.2 -1 0 -3.7 -6 -3.2 -6.9 0.3 -0.5 -0.2 -1.5 -1.2 -2.2 -1.6 -1.3 -1.6 -1.3 -0.2 0.5 0.9 1.2 1 1.7 0.2 1.2 -1.2 -0.7 -4.3 -6 -4.2 -7.3 0 -0.5 -0.3 -0.8 -0.7 -0.8 -1.1 -0.1 -23.8 -22.9 -23.5 -23.6 0 -0.4 -0.6 -0.6 -1.6 -0.5 -0.9 0 -1.6 -0.4 -1.5 -1 0.1 -0.7 -0.5 -1.1 -1.5 -1 -0.9 0 -1.6 -0.5 -1.4 -1.2 0.1 -0.6 -0.1 -1.1 -0.5 -1.1 -2 0.3 -3.4 -0.2 -2.8 -1 0.3 -0.5 0 -1.3 -0.6 -1.7 -0.8 -0.4 -0.9 -0.3 -0.5 0.4 1 1.7 -0.5 1.4 -3.7 -0.6 -1.5 -1 -2.4 -2.2 -2 -2.6 0.4 -0.4 0.1 -0.5 -0.7 -0.2 -1.8 0.7 -11.3 -3.7 -10.3 -4.8 0.4 -0.4 -0.1 -0.4 -1.1 0 -1.3 0.5 -1.7 0.4 -1.2 -0.4 0.5 -0.8 0.2 -1 -0.8 -0.6 -3.2 1.2 -3.5 -0.7 -0.9 -4.6 1.4 -2.2 2.8 -4 3 -4 0.2 0 0.1 0.5 -0.3 1.2 -0.4 0.7 -0.3 0.8 0.5 0.4 0.6 -0.4 0.9 -1.2 0.6 -1.7 -1.1 -1.7 6.6 -11.4 8.1 -10.1 0.4 0.4 0.4 0.2 0.1 -0.4 -0.4 -0.6 0.1 -2 0.9 -3 0.9 -1 1.2 -1.3 0.8 -0.5 -0.5 0.9 -0.3 1.2 0.5 0.7 0.6 -0.4 0.9 -1.2 0.5 -1.7 -0.3 -0.5 0 -1.6 0.6 -2.4 1.4 -1.7 4.5 -2.1 3.5 -0.5 -0.3 0.6 0.1 0.7 1 0.4 1.9 -0.8 6.7 1.5 5.9 2.7 -0.3 0.5 0.3 0.6 1.2 0.2 1.2 -0.4 1.5 -0.3 1 0.5 -0.5 0.8 -0.1 1 1 0.5 1.2 -0.4 1.5 -0.3 1 0.5 -0.4 0.7 -0.2 1 0.6 0.7 1.9 -0.7 8 3.3 7.2 4.7 -0.4 0.7 -0.3 0.8 0.4 0.4 1.4 -0.8 7.3 2.4 6.6 3.5 -0.2 0.4 0.1 1.1 0.7 1.5 0.8 0.4 0.9 0.3 0.5 -0.4 -1.3 -2.2 0.7 -1.2 6.1 2.9 2.9 2.2 5.1 4.4 4.8 4.9 -0.5 0.7 1 2.3 2.5 2.6 2.4 0.5 4 1.9 3.6 3.1 -0.3 0.8 -0.2 1.1 0.4 0.8 1.1 -0.7 9.2 7.3 8.5 8.5 -0.3 0.4 0.3 1.4 1.3 2.1 1.6 1.3 1.6 1.2 0.3 -0.6 -0.8 -1.1 0 -0.6 1.7 1.2 3.2 3.2 4.2 5 2 3.7 -0.7 -0.4 -0.8 -0.3 -0.4 0.5 0.4 0.6 1.1 0.9 1.6 0.6 1.1 -0.7 5.1 5 4.2 6 -0.4 0.5 -0.2 0.5 0.4 0.2 1.2 -0.7 4.8 4.9 3.9 6.2 -0.3 0.5 0 1.3 0.6 1.7 0.8 0.4 0.9 0.3 0.5 -0.4 -0.4 -0.7 -0.5 -1.2 -0.2 -1.2 0.6 0 4.6 6.5 4.6 7.4 0 0.4 -0.5 0.4 -1.2 0 -0.7 -0.4 -0.8 -0.3 -0.4 0.5 0.4 0.6 1.2 0.8 1.8 0.5 0.8 -0.5 0.9 -0.1 0.5 1 -0.4 0.9 -0.3 1.5 0.2 1.2 1.2 -0.8 4.4 6.1 3.5 7.6 -0.5 0.7 -0.3 0.8 0.6 0.3 1 -0.6 1.2 -0.4 0.7 0.9 -0.5 1.1 -0.3 1.5 0.5 1 0.8 -0.5 0.9 -0.2 0.5 1 -0.4 1 -0.3 1.5 0.3 1.1 0.6 -0.3 1 -0.3 1.1 0.2 0.2 1.9 0.8 4 2.4 7.7 0.9 2.1 1.4 4.5 1.1 5.3 -0.3 0.8 -0.1 1.1 0.4 0.8 1.2 -0.7 2.3 3.5 2.4 9.1 0.1 2.3 0.4 3.8 0.7 3.2 0.7 -1.1 2.4 5.4 3.5 13.2 2.2 15 -0.5 55.4 -3.5 53.5 -0.5 -0.2 -0.6 0.7 -0.3 2.2 0.3 1.4 0.1 2.3 -0.4 2 -0.5 -0.3 -0.9 0.8 -0.8 2.5 0.1 3.3 -3.5 14 -4.5 13.4 -0.3 -0.2 -0.7 1.2 -0.7 3.1 -0.1 1.9 -0.7 4 -1.4 4.6 -1 0.9 -1.1 0.9 -0.5 -0.2 0.5 -0.9 0.4 -1.2 -0.3 -0.7 -0.6 0.4 -0.8 1.4 -0.5 2.3 0.5 1.2 0.3 1.4 -0.7 0.8 -0.8 -0.5 -1.1 -0.4 -0.6 0.3 0.7 1.1 -1.8 8.2 -2.9 8.2 -0.3 0 -0.3 -0.5 0.1 -1.2 0.4 -0.7 0.3 -0.8 -0.4 -0.4 -0.6 0.4 -0.8 1.4 -0.5 2.3 0.5 1.2 0.3 1.4 -0.7 0.8 -0.9 -0.5 -1.1 -0.4 -0.6 0.3 1.2 2 -4.3 11 -5.8 9.4 -0.4 -0.3 -0.5 0 -0.2 0.8 0.3 0.8 -0.4 2.6 -1.5 4 -1.1 1.4 -1.7 1.9 -1.3 1.1 0.5 -0.9 0.3 -1.2 -0.5 -0.7 -0.6 0.4 -0.9 1.2 -0.5 1.7 0.7 1.2 -3.3 6.6 -9.8 13.3 -2.7 2.7 -4.8 5.3 -4.8 5.8 0 0.4 -0.3 0.8 -0.7 0.8 -1.5 0 -9.3 8.2 -8.7 9.1 0.3 0.5 1 0.7 1.5 0.4 1.2 -0.8 5.1 0.4 4.5 1.3 -0.2 0.4 1.4 0.8 3.5 0.9 5.8 0.2 9.1 1.2 8.3 2.5 -0.4 0.7 -0.3 0.8 0.5 0.4 0.7 -0.5 4.2 -0.1 7.9 0.8 3.7 0.8 10.2 2.3 14.6 3.2 4.3 0.9 7.4 1.9 6.8 2.3 -0.5 0.3 2.9 0.7 7.6 0.9 4.8 0.2 10.4 0.8 12.7 1.4 4.7 1.2 48.7 2 48 0.8 -0.5 -0.8 1.4 -1.4 8 -2.6 1.7 -0.3 3.2 -0.9 3.3 -1.5 0.2 -0.5 0.8 -0.9 1.3 -0.9 0.6 0 0.7 0.5 0.3 1.2 -0.4 0.7 -0.3 0.8 0.5 0.4 0.6 -0.4 0.9 -1.1 0.6 -1.6 -0.3 -0.4 0.1 -1 0.7 -1.2 0.9 -0.3 1.3 -2.5 1.3 -6 0 -3.1 -0.3 -5.4 -0.6 -5.2 -1.1 0.7 -3.2 -5.5 -2.5 -7.3 0.4 -1 0.4 -1.4 0 -1.1 -1.4 1.4 -7.1 -7.3 -5.9 -9.2 0.3 -0.5 0 -1.2 -0.6 -1.6 -0.8 -0.5 -1 -0.2 -0.5 0.7 0.4 0.8 -0.1 0.3 -1.2 -1.1 -1.1 -1.4 -3.2 -3.8 -4.6 -5.5 -1.4 -1.6 -2.7 -3.3 -2.7 -3.7 -0.1 -0.5 -0.2 -1.2 -0.3 -1.7 0 -0.5 -0.5 -1.3 -1 -1.8 -0.6 -0.5 -0.6 -0.2 -0.1 0.7 1.1 2 0.5 1.4 -4.9 -4.9 -2.5 -3 -4.3 -5.7 -4.1 -6.1 0.3 -0.4 -0.3 -1.4 -1.3 -2.1 -1.6 -1.3 -1.6 -1.2 -0.3 0.6 0.8 1.1 -2 -1.3 -6.2 -5.4 -4.2 -4.1 -7.4 -7.8 -7.1 -8.2 0.2 -0.4 -0.1 -1.1 -0.7 -1.5 -0.8 -0.4 -0.9 -0.3 -0.5 0.4 1.4 2.4 -0.4 1.1 -5.1 -3.5 -2.6 -2.6 -3.9 -4 -2.8 -3.2 1.8 1.3 1.9 1.3 0.6 -0.3 -0.7 -1 -1.7 -1.5 -2.2 -1.3 -0.4 0.3 -2.3 -0.7 -4 -2.3 l-3.3 -2.9 2.2 -9.9 c1.2 -5.5 2.2 -12 2.2 -14.7 l0 -4.7 2.5 1.6 c1.4 0.9 2.5 2.3 2.5 3.1 0 0.8 0.4 1.1 1 0.8 0.5 -0.3 3.3 1.8 6.2 4.6 2.9 2.9 4.4 4.6 3.3 3.8 -1.8 -1.3 -1.9 -1.3 -0.6 0.3 0.7 1 1.7 1.6 2.1 1.3 0.5 -0.3 2.1 0.7 3.7 2.1 1.5 1.5 1.9 2 0.8 1.3 -1.8 -1.3 -1.9 -1.3 -0.6 0.3 0.7 1 1.7 1.5 2.2 1.2 1.3 -0.7 27.3 25.1 26.6 26.3 -0.4 0.6 0.3 1.9 1.6 2.9 2.2 1.9 2.2 1.9 0.7 -0.1 -0.8 -1.2 -0.4 -1 0.9 0.5 5.7 6.1 7.1 8.1 6.6 9.1 -0.4 0.5 -0.1 0.8 0.6 0.7 1.5 -0.4 10.9 13.1 10.6 15.2 -0.1 0.8 0.3 1.4 1 1.3 0.7 -0.2 1.7 0.6 2.3 1.7 0.6 1.1 0.8 2 0.4 2 -0.3 0 0.1 1.1 1 2.5 0.9 1.4 1.4 3.1 1 3.7 -0.4 0.6 -0.3 0.8 0.4 0.4 1.3 -0.8 3.6 5.8 2.8 8 -0.3 0.8 -0.2 1.3 0.3 1 0.9 -0.6 4.1 10.7 4.1 14.4 0 2.4 -3.9 14.1 -5.2 15.5 -0.5 0.6 -1.4 1 -2 1 -0.6 0 -1.2 0.9 -1.4 2 -0.3 2.3 -3.3 4.7 -4.7 3.8 -0.6 -0.3 -0.7 -0.1 -0.4 0.4 1 1.6 -3 4.6 -5.3 4 -1.3 -0.3 -1.8 -0.1 -1.3 0.6 0.4 0.7 0 0.8 -1.1 0.4 -1.1 -0.5 -1.5 -0.3 -1 0.5 0.5 0.8 0.2 0.9 -1 0.5 -1 -0.4 -1.5 -0.3 -1.1 0.3 0.7 1.1 -0.9 1.9 -4.6 2.4 -1.3 0.1 -3.1 0.5 -3.9 0.9 -5.5 2.2 -32.1 4.1 -43 3.1z m0.8 -2.1 c-1.5 -0.2 -4.2 -0.2 -6 0 -1.8 0.2 -0.6 0.4 2.7 0.4 3.3 0 4.8 -0.2 3.3 -0.4z m28.5 0 c-1.3 -0.2 -3.5 -0.2 -5 0 -1.6 0.2 -0.5 0.4 2.2 0.4 2.8 0 4 -0.2 2.8 -0.4z m-40 -1 c-1.3 -0.2 -3.3 -0.2 -4.5 0 -1.3 0.2 -0.3 0.4 2.2 0.4 2.5 0 3.5 -0.2 2.3 -0.4z m30 -21 c-4 -0.2 -10.7 -0.2 -15 0 -4.3 0.1 -1 0.3 7.2 0.3 8.3 0 11.8 -0.2 7.8 -0.3z m-24.5 -1 c-1 -0.2 -2.8 -0.2 -4 0 -1.3 0.2 -0.5 0.4 1.7 0.4 2.2 0.1 3.2 -0.1 2.3 -0.4z m44.2 -76.6 c0 -0.1 -4.6 -4.7 -10.2 -10.2 l-10.3 -10 10 10.3 c9.3 9.5 10.5 10.7 10.5 9.9z m-99.3 -64.4 c-0.2 -3.2 -0.3 -0.6 -0.3 5.7 0 6.3 0.1 8.9 0.3 5.8 0.2 -3.2 0.2 -8.4 0 -11.5z"/>
  <path d="M243.2 403.2 c-4 -0.1 -7.1 -0.6 -6.8 -1 0.2 -0.4 -2.4 -0.7 -5.9 -0.7 -6.2 0 -21.2 -3.5 -20 -4.7 0.4 -0.3 0 -0.5 -0.7 -0.5 -2.7 0.3 -10.8 -1.5 -10.8 -2.4 0 -0.5 -0.8 -0.9 -1.7 -0.9 -1.6 0 -1.6 -0.2 -0.3 -1.1 1.2 -0.8 1 -0.9 -0.9 -0.4 -2.7 0.8 -7.4 -1.3 -6.4 -2.8 0.4 -0.6 0.1 -0.7 -0.6 -0.3 -1.3 0.9 -11.1 -3.3 -11.1 -4.7 0 -0.4 0.3 -0.6 0.8 -0.4 0.4 0.3 0.7 -0.7 0.8 -2.1 0 -1.5 0.3 -3.8 0.6 -5.2 0.3 -1.4 0.9 -3.8 1.3 -5.5 0.4 -1.6 1.6 -5.4 2.6 -8.3 1 -2.9 1.8 -5.6 1.7 -6 -0.1 -0.4 0.2 -1.7 0.6 -3 0.7 -2.2 0.8 -2.2 3.6 -0.5 1.6 0.9 2.7 2 2.4 2.5 -0.3 0.4 0.3 0.5 1.2 0.1 1.3 -0.5 1.5 -0.3 0.9 0.7 -0.5 0.8 -0.4 1.1 0.3 0.6 1.7 -1 8.5 2.6 7 3.7 -0.9 0.6 -0.8 0.7 0.3 0.4 0.9 -0.3 3.4 0.1 5.5 0.9 2.2 0.8 4.7 1.7 5.7 2.1 1.5 0.4 1.6 0.8 0.5 1.5 -0.8 0.5 -0.2 0.6 1.6 0.2 2 -0.5 2.7 -0.4 2.2 0.4 -0.5 0.8 -0.2 1 0.8 0.6 0.9 -0.3 4.1 0.8 7.1 2.5 3 1.7 5.5 2.9 5.5 2.6 0 -0.3 0.9 -0.1 2 0.5 1.1 0.6 1.8 1.5 1.5 2 -0.4 0.6 0.1 0.7 1.1 0.3 1.2 -0.4 1.5 -0.3 1 0.5 -0.5 0.8 -0.1 1 1 0.5 1.3 -0.5 1.5 -0.3 0.9 0.7 -0.5 0.9 -0.4 1.1 0.4 0.6 1.5 -1 7.3 1.3 6.5 2.5 -0.3 0.5 0.3 0.6 1.2 0.2 1.2 -0.4 1.5 -0.3 1 0.5 -0.5 0.8 -0.1 1 1 0.5 1 -0.4 1.5 -0.2 1.1 0.4 -0.3 0.5 0.3 0.9 1.6 0.8 2.5 -0.2 5.8 1.5 5.1 2.7 -0.3 0.4 0.3 0.5 1.2 0.1 1.2 -0.4 1.5 -0.3 1 0.5 -0.4 0.7 -0.2 1 0.7 0.7 1.7 -0.7 10 2.9 9 3.9 -0.4 0.4 0 0.4 1 0 0.9 -0.3 2.3 -0.1 3.1 0.5 0.8 0.7 2.5 1.4 3.7 1.6 3.3 0.6 6.9 2.7 6.4 3.6 -0.3 0.4 0.3 0.5 1.2 0.3 1 -0.2 3.6 0.5 5.8 1.6 3.4 1.7 3.6 2 1.3 1.6 -1.5 -0.1 -2.5 0.1 -2.2 0.5 0.3 0.5 0.3 0.9 0 0.9 -0.3 0 -5.2 0.6 -10.8 1.4 -11.9 1.7 -24.2 2.3 -34.6 1.8z m-24.7 -5.2 c-1.1 -0.5 -2.7 -0.9 -3.5 -0.9 -0.9 0 -0.8 0.4 0.5 0.9 1.1 0.5 2.7 0.9 3.5 0.9 0.9 0 0.8 -0.4 -0.5 -0.9z"/>
 </g>
</svg>